<?xml version="1.0" encoding="UTF-8" standalone="no"?><!DOCTYPE svg PUBLIC "-//W3C//DTD SVG 1.1//EN" "http://www.w3.org/Graphics/SVG/1.1/DTD/svg11.dtd"><svg width="100%" height="100%" viewBox="0 0 463 259" version="1.1" xmlns="http://www.w3.org/2000/svg" xmlns:xlink="http://www.w3.org/1999/xlink" xml:space="preserve" xmlns:serif="http://www.serif.com/" style="fill-rule:evenodd;clip-rule:evenodd;stroke-linejoin:round;stroke-miterlimit:2;"><rect x="139.348" y="234.269" width="54.155" height="9.027" style="fill:#cf232b;"/><rect x="38.742" y="142.451" width="68.014" height="6.33" style="fill:#cf232b;"/><rect x="73.749" y="91.167" width="12.014" height="6.33" style="fill:#cf232b;"/><rect x="165.4" y="91.167" width="12.014" height="6.33" style="fill:#cf232b;"/><rect x="38.742" y="155.659" width="68.014" height="6.33" style="fill:#cf232b;"/><rect x="369.742" y="43.659" width="6.521" height="71.33" style="fill:#cf232b;"/><rect x="383.72" y="80.006" width="6.521" height="34.983" style="fill:#cf232b;"/><rect x="397.699" y="92.006" width="6.521" height="22.983" style="fill:#cf232b;"/><rect x="411.677" y="92.006" width="6.521" height="22.983" style="fill:#cf232b;"/><rect x="425.656" y="92.006" width="6.521" height="22.983" style="fill:#cf232b;"/><rect x="369.742" y="138.178" width="6.521" height="34.983" style="fill:#cf232b;"/><rect x="383.72" y="138.178" width="6.521" height="34.983" style="fill:#cf232b;"/><rect x="397.699" y="138.178" width="6.521" height="34.983" style="fill:#cf232b;"/><rect x="411.677" y="138.178" width="6.521" height="34.983" style="fill:#cf232b;"/><rect x="425.656" y="138.178" width="6.521" height="34.983" style="fill:#cf232b;"/><rect x="369.742" y="196.35" width="6.521" height="34.983" style="fill:#cf232b;"/><rect x="383.72" y="196.35" width="6.521" height="34.983" style="fill:#cf232b;"/><rect x="397.699" y="196.35" width="6.521" height="34.983" style="fill:#cf232b;"/><rect x="411.677" y="196.35" width="6.521" height="34.983" style="fill:#cf232b;"/><rect x="425.656" y="196.35" width="6.521" height="34.983" style="fill:#cf232b;"/><rect x="38.742" y="169.191" width="68.014" height="6.33" style="fill:#cf232b;"/><rect x="140.87" y="158.986" width="64.559" height="6.33" style="fill:#cf232b;"/><rect x="140.87" y="173.161" width="64.559" height="6.33" style="fill:#cf232b;"/><rect x="140.87" y="187.282" width="64.559" height="6.33" style="fill:#cf232b;"/><rect x="276.825" y="141.807" width="4.194" height="12.887" style="fill:#cf232b;"/><rect x="287.457" y="141.807" width="4.194" height="12.887" style="fill:#cf232b;"/><rect x="276.825" y="163.705" width="4.194" height="12.887" style="fill:#cf232b;"/><rect x="287.457" y="163.705" width="4.194" height="12.887" style="fill:#cf232b;"/><rect x="276.825" y="184.704" width="4.194" height="12.887" style="fill:#cf232b;"/><rect x="287.457" y="184.704" width="4.194" height="12.887" style="fill:#cf232b;"/><rect x="329.825" y="142.256" width="4.194" height="12.887" style="fill:#cf232b;"/><rect x="340.457" y="142.256" width="4.194" height="12.887" style="fill:#cf232b;"/><rect x="329.825" y="164.155" width="4.194" height="12.887" style="fill:#cf232b;"/><rect x="340.457" y="164.155" width="4.194" height="12.887" style="fill:#cf232b;"/><rect x="329.825" y="185.154" width="4.194" height="12.887" style="fill:#cf232b;"/><rect x="340.457" y="185.154" width="4.194" height="12.887" style="fill:#cf232b;"/><rect x="354.829" y="9.766" width="7.456" height="227.323" style="fill:#cf232b;"/><rect x="438.615" y="81.561" width="10.965" height="157.221" style="fill:#cf232b;"/><rect x="402.11" y="79.324" width="47.469" height="7.37" style="fill:#cf232b;"/><path d="M362.346,9.801l-7.291,7.339l30.289,30.094l7.292,-7.339l-30.29,-30.094Z" style="fill:#cf232b;"/><path d="M392.281,62.318l-7.295,7.342l17.117,17.006l7.295,-7.342l-17.117,-17.006Z" style="fill:#cf232b;"/><rect x="385.02" y="39.834" width="7.521" height="29.86" style="fill:#cf232b;"/><path d="M138.876,207.782l183.968,0l-0,29.307l52.497,0l-0,21.071l-5.273,0l-0,-14.047l-52.904,-0l-0,-13.72c-8.673,-0.556 -45.061,-0.779 -178.462,0.161l0.174,-22.772Zm26.524,6.059l-16.588,0l0,5.137l16.588,0l0,-5.137Zm64.081,0l-25.757,0l-0,5.137l25.757,0l-0,-5.137Zm85.347,-0.191l-25.757,-0l-0,5.137l25.757,-0l-0,-5.137Z" style="fill:#cf232b;fill-rule:nonzero;"/><path d="M294.122,70.906l60.706,-0.906l0,5.58l-38.413,44.49l0.072,87.712l-8.115,0l0.048,-86.853l-44.083,0.108l-2.721,2.315l0.036,61.033l-4.111,0l0.134,-55.938l-16.604,20.37l-100.325,-0.011l-0.012,-11.449l-12.747,0.133l0.166,85.578l-9.845,0.048l-0.036,-90.343l-85.837,-0.089l-2.471,2.965l-0.072,86.345l-13.46,8.652l-16.432,0.262l3.364,-4.098l12.196,-0.159l8.21,-5.578l0.071,-91.386l22.364,-34.847l194.396,1.642l15,18.984l38.521,-44.56Z" style="fill:#cf232b;fill-rule:nonzero;"/></svg>